<svg width="1090" height="891" viewBox="0 0 1090 891" fill="none" xmlns="http://www.w3.org/2000/svg">
<path fill-rule="evenodd" clip-rule="evenodd" d="M901.884 23.2777C938.951 40.4091 944.128 92.0228 977.007 116.243C1009.5 140.178 1071.75 122.126 1086.87 159.549C1101.66 196.127 1060.52 232.147 1036.48 263.426C1019.16 285.97 988.982 291.993 969.32 312.527C942.466 340.571 940.692 403.036 901.884 403.99C863.483 404.934 862.964 338.64 831.997 315.904C801.307 293.371 754.878 303.085 727.882 276.234C690.215 238.77 649.763 192.159 654.358 139.223C659.084 84.7841 701.377 34.8897 750.846 11.7174C797.721 -10.2398 854.897 1.56134 901.884 23.2777Z" fill="#FE573F"/>
<path fill-rule="evenodd" clip-rule="evenodd" d="M28.3705 642.371C44.4905 604.853 95.9448 598.279 119.264 564.755C142.309 531.626 122.576 469.885 159.575 453.753C195.739 437.986 232.861 478.131 264.781 501.311C287.786 518.016 294.625 548.019 315.685 567.117C344.446 593.2 406.937 593.279 408.943 632.047C410.928 670.409 344.673 672.725 322.784 704.298C301.092 735.587 312.061 781.735 285.953 809.449C249.524 848.119 204.027 889.82 150.985 886.662C96.4385 883.414 45.4156 842.49 20.9103 793.667C-2.30997 747.405 7.93635 689.93 28.3705 642.371Z" fill="#5FAFEF"/>
</svg>
