<svg width="663" height="818" viewBox="0 0 663 818" fill="none" xmlns="http://www.w3.org/2000/svg">
<path fill-rule="evenodd" clip-rule="evenodd" d="M300.52 356.942C279.785 329.298 249.385 306.257 245.811 271.886C242.334 238.438 266.263 210.061 282.169 180.432C297.169 152.49 313.486 127.265 335.634 104.566C367.531 71.8755 395.172 6.72504 438.948 19.753C485.91 33.7292 465.7 112.357 494.648 151.889C515.176 179.922 570.309 176.037 578.175 209.88C585.97 243.422 542.009 265.893 528.507 297.572C514.059 331.472 522.031 373.757 496.859 400.67C467.38 432.186 424.438 463.249 382.317 453.868C340.017 444.447 326.525 391.61 300.52 356.942Z" fill="#FE573F"/>
<path fill-rule="evenodd" clip-rule="evenodd" d="M53.8973 613.132C54.5813 572.58 42.9942 529.336 64.429 494.906C85.2881 461.4 127.899 452.327 163.974 436.317C197.996 421.218 231.282 409.586 268.153 404.493C321.254 397.159 393.782 356.674 424.976 400.268C458.442 447.035 383.097 505.362 381.466 562.846C380.31 603.608 434.208 639.703 417.132 676.734C400.207 713.437 343.281 702.612 307.958 722.253C270.158 743.272 247.103 788.205 204.394 795.025C154.38 803.012 92.2128 800.886 59.9259 761.863C27.5022 722.675 53.0394 663.987 53.8973 613.132Z" fill="#5FAFEF"/>
</svg>
