<svg width="40" height="40" viewBox="0 0 40 40" fill="none" xmlns="http://www.w3.org/2000/svg">
<circle cx="20" cy="20" r="20" fill="#181818"/>
<path d="M25.5628 9.00458L22.7856 9C19.6654 9 17.649 11.1251 17.649 14.4142V16.9106H14.8566C14.6153 16.9106 14.4199 17.1115 14.4199 17.3594V20.9763C14.4199 21.2241 14.6155 21.4249 14.8566 21.4249H17.649V30.5514C17.649 30.7993 17.8444 31 18.0857 31H21.729C21.9703 31 22.1657 30.799 22.1657 30.5514V21.4249H25.4307C25.672 21.4249 25.8674 21.2241 25.8674 20.9763L25.8688 17.3594C25.8688 17.2404 25.8226 17.1264 25.7409 17.0422C25.6591 16.9579 25.5477 16.9106 25.4318 16.9106H22.1657V14.7944C22.1657 13.7773 22.4017 13.2609 23.6915 13.2609L25.5624 13.2603C25.8035 13.2603 25.9989 13.0593 25.9989 12.8117V9.45317C25.9989 9.20576 25.8037 9.00504 25.5628 9.00458Z" fill="white"/>
</svg>
