<svg width="40" height="40" viewBox="0 0 40 40" fill="none" xmlns="http://www.w3.org/2000/svg">
<circle cx="20" cy="20" r="20" fill="#181818"/>
<path d="M30.5 13.7723C29.7271 14.1003 28.8978 14.3227 28.0264 14.422C28.9161 13.9118 29.5972 13.1026 29.92 12.1414C29.0854 12.6138 28.1642 12.9569 27.1826 13.1428C26.3966 12.3399 25.2785 11.8398 24.0384 11.8398C21.6593 11.8398 19.7303 13.6869 19.7303 15.9637C19.7303 16.2866 19.7683 16.602 19.8418 16.9036C16.262 16.7314 13.0877 15.0892 10.9631 12.5937C10.5918 13.2019 10.3805 13.9105 10.3805 14.667C10.3805 16.0981 11.1416 17.3609 12.2964 18.0997C11.5904 18.0771 10.9264 17.8912 10.3451 17.5821V17.6336C10.3451 19.6314 11.8306 21.2988 13.8002 21.6783C13.4394 21.7713 13.0588 21.8228 12.6651 21.8228C12.387 21.8228 12.1179 21.7964 11.8542 21.7461C12.4027 23.3859 13.9931 24.5783 15.8776 24.611C14.4039 25.7167 12.5457 26.3739 10.5275 26.3739C10.1798 26.3739 9.83724 26.3537 9.5 26.3173C11.4067 27.4896 13.6704 28.1732 16.1033 28.1732C24.028 28.1732 28.3597 21.8881 28.3597 16.4374L28.3453 15.9034C29.1917 15.3254 29.9239 14.5991 30.5 13.7723Z" fill="white"/>
</svg>
