<svg width="105" height="104" viewBox="0 0 105 104" fill="none" xmlns="http://www.w3.org/2000/svg">
<path fill-rule="evenodd" clip-rule="evenodd" d="M46.6863 96.832C31.2344 97.6654 13.8546 95.7304 4.70808 83.4172C-4.19141 71.4365 1.59455 55.4738 5.26442 41.0691C8.78453 27.2522 12.0982 12.2983 24.6308 5.21786C38.0569 -2.36736 54.6473 -1.07697 68.7492 5.20278C83.3326 11.697 96.3765 23.027 99.4197 38.5223C102.372 53.5557 93.6118 67.7528 83.2777 79.1796C73.7682 89.6947 60.95 96.0627 46.6863 96.832Z" fill="#D9EEFF"/>
<path d="M96.25 34H90V31.5C90 30.1739 89.4732 28.9021 88.5355 27.9645C87.5979 27.0268 86.3261 26.5 85 26.5C83.6739 26.5 82.4021 27.0268 81.4645 27.9645C80.5268 28.9021 80 30.1739 80 31.5V34H70V31.5C70 30.1739 69.4732 28.9021 68.5355 27.9645C67.5979 27.0268 66.3261 26.5 65 26.5C63.6739 26.5 62.4021 27.0268 61.4645 27.9645C60.5268 28.9021 60 30.1739 60 31.5V34H50V31.5C50 30.1739 49.4732 28.9021 48.5355 27.9645C47.5979 27.0268 46.3261 26.5 45 26.5C43.6739 26.5 42.4021 27.0268 41.4645 27.9645C40.5268 28.9021 40 30.1739 40 31.5V34H33.75C32.0924 34 30.5027 34.6585 29.3306 35.8306C28.1585 37.0027 27.5 38.5924 27.5 40.25V90.25C27.5 91.9076 28.1585 93.4973 29.3306 94.6694C30.5027 95.8415 32.0924 96.5 33.75 96.5H68.75C69.0815 96.5 69.3995 96.3683 69.6339 96.1339C69.8683 95.8995 70 95.5815 70 95.25C70 94.9185 69.8683 94.6005 69.6339 94.3661C69.3995 94.1317 69.0815 94 68.75 94H33.75C32.7564 93.997 31.8042 93.601 31.1016 92.8984C30.399 92.1958 30.003 91.2437 30 90.25V51.5H100V72.75C100 73.0815 100.132 73.3995 100.366 73.6339C100.601 73.8683 100.918 74 101.25 74C101.582 74 101.899 73.8683 102.134 73.6339C102.368 73.3995 102.5 73.0815 102.5 72.75V40.25C102.5 38.5924 101.842 37.0027 100.669 35.8306C99.4973 34.6585 97.9076 34 96.25 34ZM82.5 31.5C82.5 30.837 82.7634 30.2011 83.2322 29.7322C83.7011 29.2634 84.337 29 85 29C85.663 29 86.2989 29.2634 86.7678 29.7322C87.2366 30.2011 87.5 30.837 87.5 31.5V39C87.5 39.663 87.2366 40.2989 86.7678 40.7678C86.2989 41.2366 85.663 41.5 85 41.5C84.337 41.5 83.7011 41.2366 83.2322 40.7678C82.7634 40.2989 82.5 39.663 82.5 39V31.5ZM62.5 31.5C62.5 30.837 62.7634 30.2011 63.2322 29.7322C63.7011 29.2634 64.337 29 65 29C65.663 29 66.2989 29.2634 66.7678 29.7322C67.2366 30.2011 67.5 30.837 67.5 31.5V39C67.5 39.663 67.2366 40.2989 66.7678 40.7678C66.2989 41.2366 65.663 41.5 65 41.5C64.337 41.5 63.7011 41.2366 63.2322 40.7678C62.7634 40.2989 62.5 39.663 62.5 39V31.5ZM42.5 31.5C42.5 30.837 42.7634 30.2011 43.2322 29.7322C43.7011 29.2634 44.337 29 45 29C45.663 29 46.2989 29.2634 46.7678 29.7322C47.2366 30.2011 47.5 30.837 47.5 31.5V39C47.5 39.663 47.2366 40.2989 46.7678 40.7678C46.2989 41.2366 45.663 41.5 45 41.5C44.337 41.5 43.7011 41.2366 43.2322 40.7678C42.7634 40.2989 42.5 39.663 42.5 39V31.5ZM100 49H30V40.25C30.003 39.2564 30.399 38.3042 31.1016 37.6016C31.8042 36.899 32.7564 36.503 33.75 36.5H40V39C40 40.3261 40.5268 41.5979 41.4645 42.5355C42.4021 43.4732 43.6739 44 45 44C46.3261 44 47.5979 43.4732 48.5355 42.5355C49.4732 41.5979 50 40.3261 50 39V36.5H60V39C60 40.3261 60.5268 41.5979 61.4645 42.5355C62.4021 43.4732 63.6739 44 65 44C66.3261 44 67.5979 43.4732 68.5355 42.5355C69.4732 41.5979 70 40.3261 70 39V36.5H80V39C80 40.3261 80.5268 41.5979 81.4645 42.5355C82.4021 43.4732 83.6739 44 85 44C86.3261 44 87.5979 43.4732 88.5355 42.5355C89.4732 41.5979 90 40.3261 90 39V36.5H96.25C97.2437 36.503 98.1958 36.899 98.8984 37.6016C99.601 38.3042 99.997 39.2564 100 40.25V49Z" fill="#FF6744"/>
<path d="M62.5 60.25C62.5 59.587 62.2366 58.9511 61.7678 58.4822C61.2989 58.0134 60.663 57.75 60 57.75H55C54.337 57.75 53.7011 58.0134 53.2322 58.4822C52.7634 58.9511 52.5 59.587 52.5 60.25V64C52.5 64.663 52.7634 65.2989 53.2322 65.7678C53.7011 66.2366 54.337 66.5 55 66.5H60C60.663 66.5 61.2989 66.2366 61.7678 65.7678C62.2366 65.2989 62.5 64.663 62.5 64V60.25ZM55 64V60.25H60V64H55Z" fill="#FF6744"/>
<path d="M47.5 60.25C47.5 59.587 47.2366 58.9511 46.7678 58.4822C46.2989 58.0134 45.663 57.75 45 57.75H40C39.337 57.75 38.7011 58.0134 38.2322 58.4822C37.7634 58.9511 37.5 59.587 37.5 60.25V64C37.5 64.663 37.7634 65.2989 38.2322 65.7678C38.7011 66.2366 39.337 66.5 40 66.5H45C45.663 66.5 46.2989 66.2366 46.7678 65.7678C47.2366 65.2989 47.5 64.663 47.5 64V60.25ZM40 64V60.25H45V64H40Z" fill="#FF6744"/>
<path d="M90 66.5C90.663 66.5 91.2989 66.2366 91.7678 65.7678C92.2366 65.2989 92.5 64.663 92.5 64V60.25C92.5 59.587 92.2366 58.9511 91.7678 58.4822C91.2989 58.0134 90.663 57.75 90 57.75H85C84.337 57.75 83.7011 58.0134 83.2322 58.4822C82.7634 58.9511 82.5 59.587 82.5 60.25V64C82.5 64.663 82.7634 65.2989 83.2322 65.7678C83.7011 66.2366 84.337 66.5 85 66.5H90ZM85 60.25H90V64H85V60.25Z" fill="#FF6744"/>
<path d="M62.5 71.5C62.5 70.837 62.2366 70.2011 61.7678 69.7322C61.2989 69.2634 60.663 69 60 69H55C54.337 69 53.7011 69.2634 53.2322 69.7322C52.7634 70.2011 52.5 70.837 52.5 71.5V75.25C52.5 75.913 52.7634 76.5489 53.2322 77.0178C53.7011 77.4866 54.337 77.75 55 77.75H60C60.663 77.75 61.2989 77.4866 61.7678 77.0178C62.2366 76.5489 62.5 75.913 62.5 75.25V71.5ZM55 75.25V71.5H60V75.25H55Z" fill="#FF6744"/>
<path d="M47.5 71.5C47.5 70.837 47.2366 70.2011 46.7678 69.7322C46.2989 69.2634 45.663 69 45 69H40C39.337 69 38.7011 69.2634 38.2322 69.7322C37.7634 70.2011 37.5 70.837 37.5 71.5V75.25C37.5 75.913 37.7634 76.5489 38.2322 77.0178C38.7011 77.4866 39.337 77.75 40 77.75H45C45.663 77.75 46.2989 77.4866 46.7678 77.0178C47.2366 76.5489 47.5 75.913 47.5 75.25V71.5ZM40 75.25V71.5H45V75.25H40Z" fill="#FF6744"/>
<path d="M60 80.25H55C54.337 80.25 53.7011 80.5134 53.2322 80.9822C52.7634 81.4511 52.5 82.087 52.5 82.75V86.5C52.5 87.163 52.7634 87.7989 53.2322 88.2678C53.7011 88.7366 54.337 89 55 89H60C60.663 89 61.2989 88.7366 61.7678 88.2678C62.2366 87.7989 62.5 87.163 62.5 86.5V82.75C62.5 82.087 62.2366 81.4511 61.7678 80.9822C61.2989 80.5134 60.663 80.25 60 80.25ZM55 86.5V82.75H60V86.5H55Z" fill="#FF6744"/>
<path d="M70 66.5H75C75.663 66.5 76.2989 66.2366 76.7678 65.7678C77.2366 65.2989 77.5 64.663 77.5 64V60.25C77.5 59.587 77.2366 58.9511 76.7678 58.4822C76.2989 58.0134 75.663 57.75 75 57.75H70C69.337 57.75 68.7011 58.0134 68.2322 58.4822C67.7634 58.9511 67.5 59.587 67.5 60.25V64C67.5 64.663 67.7634 65.2989 68.2322 65.7678C68.7011 66.2366 69.337 66.5 70 66.5ZM70 60.25H75V64H70V60.25Z" fill="#FF6744"/>
<path d="M67.5 75.25C67.5 75.913 67.7634 76.5489 68.2322 77.0178C68.7011 77.4866 69.337 77.75 70 77.75C70.3315 77.75 70.6495 77.6183 70.8839 77.3839C71.1183 77.1495 71.25 76.8315 71.25 76.5C71.25 76.1685 71.1183 75.8505 70.8839 75.6161C70.6495 75.3817 70.3315 75.25 70 75.25V71.5H75C75.3315 71.5 75.6495 71.3683 75.8839 71.1339C76.1183 70.8995 76.25 70.5815 76.25 70.25C76.25 69.9185 76.1183 69.6005 75.8839 69.3661C75.6495 69.1317 75.3315 69 75 69H70C69.337 69 68.7011 69.2634 68.2322 69.7322C67.7634 70.2011 67.5 70.837 67.5 71.5V75.25Z" fill="#FF6744"/>
<path d="M45 80.25H40C39.337 80.25 38.7011 80.5134 38.2322 80.9822C37.7634 81.4511 37.5 82.087 37.5 82.75V86.5C37.5 87.163 37.7634 87.7989 38.2322 88.2678C38.7011 88.7366 39.337 89 40 89H45C45.663 89 46.2989 88.7366 46.7678 88.2678C47.2366 87.7989 47.5 87.163 47.5 86.5V82.75C47.5 82.087 47.2366 81.4511 46.7678 80.9822C46.2989 80.5134 45.663 80.25 45 80.25ZM40 86.5V82.75H45V86.5H40Z" fill="#FF6744"/>
<path d="M86.25 69C83.0361 69 79.8943 69.953 77.222 71.7386C74.5497 73.5242 72.4669 76.0621 71.237 79.0314C70.007 82.0007 69.6852 85.268 70.3122 88.4202C70.9393 91.5724 72.4869 94.4679 74.7595 96.7405C77.0321 99.0131 79.9276 100.561 83.0798 101.188C86.232 101.815 89.4993 101.493 92.4686 100.263C95.4379 99.0331 97.9758 96.9503 99.7614 94.278C101.547 91.6057 102.5 88.4639 102.5 85.25C102.495 80.9418 100.781 76.8114 97.735 73.765C94.6886 70.7186 90.5582 69.005 86.25 69ZM86.25 99C83.5305 99 80.8721 98.1936 78.6109 96.6827C76.3497 95.1718 74.5874 93.0244 73.5467 90.5119C72.506 87.9994 72.2337 85.2347 72.7642 82.5675C73.2948 79.9003 74.6043 77.4503 76.5273 75.5273C78.4503 73.6043 80.9003 72.2947 83.5675 71.7642C86.2348 71.2337 88.9994 71.506 91.5119 72.5467C94.0244 73.5874 96.1718 75.3497 97.6827 77.6109C99.1936 79.8721 100 82.5305 100 85.25C99.9957 88.8954 98.5457 92.3903 95.968 94.968C93.3903 97.5457 89.8954 98.9957 86.25 99Z" fill="#FF6744"/>
<path d="M93.4725 80.0101L83.75 89.7326L79.3313 85.3126C79.0955 85.0849 78.7798 84.9589 78.452 84.9617C78.1243 84.9646 77.8108 85.096 77.579 85.3278C77.3473 85.5596 77.2158 85.8731 77.2129 86.2008C77.2101 86.5286 77.3361 86.8443 77.5638 87.0801L82.8663 92.3838C83.1007 92.6182 83.4186 92.7498 83.75 92.7498C84.0815 92.7498 84.3994 92.6182 84.6338 92.3838L95.24 81.7776C95.4677 81.5418 95.5937 81.2261 95.5909 80.8983C95.588 80.5706 95.4566 80.2571 95.2248 80.0253C94.993 79.7935 94.6795 79.6621 94.3518 79.6592C94.024 79.6564 93.7083 79.7824 93.4725 80.0101Z" fill="#FF6744"/>
</svg>
