<svg width="136" height="97" viewBox="0 0 136 97" fill="none" xmlns="http://www.w3.org/2000/svg">
<path fill-rule="evenodd" clip-rule="evenodd" d="M0.31517 50.7265C1.39043 37.9825 8.77527 27.6053 18.1718 18.9273C28.8412 9.07358 40.6367 -1.359 55.0835 0.145521C71.3354 1.83803 86.441 11.939 93.3263 26.7541C100.118 41.3679 96.8657 58.5788 88.6958 72.4695C81.3221 85.0063 67.6933 91.1837 53.5159 94.4405C39.305 97.7051 23.4358 99.305 12.171 90.0489C1.04118 80.9037 -0.895782 65.0787 0.31517 50.7265Z" fill="#D9EEFF"/>
<path d="M132 32.3846H117.333V27.7692C117.328 21.8244 113.152 17.0067 108 17H84C78.8478 17.0067 74.6725 21.8244 74.6667 27.7692V32.3846H60C57.7908 32.3846 56 34.451 56 37V67.7692C56.007 69.7181 57.0742 71.4519 58.6667 72.1015V92.3846C58.6667 94.9337 60.4575 97 62.6667 97H129.333C131.543 97 133.333 94.9337 133.333 92.3846V72.1015C134.926 71.4519 135.993 69.7181 136 67.7692V37C136 34.451 134.209 32.3846 132 32.3846ZM77.3333 27.7692C77.3377 23.5231 80.32 20.0819 84 20.0769H108C111.68 20.0819 114.662 23.5231 114.667 27.7692V32.3846H111.947L112 27.7692C111.996 25.2223 110.207 23.1588 108 23.1538H83.9507C81.7433 23.1588 79.955 25.2223 79.9507 27.7692V27.7846L79.9867 32.3846H77.3333V27.7692ZM109.333 27.7477L109.28 32.3846H82.6533L82.612 27.7692C82.612 26.9196 83.209 26.2308 83.9453 26.2308H108C108.729 26.2308 109.323 26.9063 109.333 27.7477ZM130.667 92.3846C130.667 93.2342 130.07 93.9231 129.333 93.9231H62.6667C61.9303 93.9231 61.3333 93.2342 61.3333 92.3846V72.3846H70.6667V77C70.6667 77.8496 71.2637 78.5385 72 78.5385H77.3333C78.0697 78.5385 78.6667 77.8496 78.6667 77V72.3846H113.333V77C113.333 77.8496 113.93 78.5385 114.667 78.5385H120C120.736 78.5385 121.333 77.8496 121.333 77V72.3846H130.667V92.3846ZM73.3333 75.4615V67.7692C73.3327 67.3544 73.4808 66.9579 73.7427 66.6738C73.9852 66.3863 74.319 66.2262 74.6667 66.2308C75.403 66.2308 76 66.9196 76 67.7692V70.8462V75.4615H73.3333ZM116 75.4615V67.7692C116 66.9196 116.597 66.2308 117.333 66.2308C117.693 66.2294 118.037 66.3998 118.284 66.7015C118.531 66.9833 118.669 67.3683 118.667 67.7692V70.8462V75.4615H116ZM133.333 67.7692C133.333 68.6188 132.736 69.3077 132 69.3077H121.333V67.7692C121.324 65.2248 119.539 63.1648 117.333 63.1538C115.124 63.1538 113.333 65.2202 113.333 67.7692V69.3077H78.6667V67.7692C78.6667 65.2202 76.8758 63.1538 74.6667 63.1538C72.4627 63.1681 70.679 65.2262 70.6667 67.7692V69.3077H60C59.2637 69.3077 58.6667 68.6188 58.6667 67.7692V37C58.6667 36.1504 59.2637 35.4615 60 35.4615H132C132.736 35.4615 133.333 36.1504 133.333 37V67.7692Z" fill="#FF6744"/>
</svg>
