<svg width="123" height="97" viewBox="0 0 123 97" fill="none" xmlns="http://www.w3.org/2000/svg">
<path fill-rule="evenodd" clip-rule="evenodd" d="M54.3065 0.8997C68.3505 1.50234 83.4974 0.940051 93.0136 12.793C103.192 25.4707 106.283 44.1116 102.349 60.739C98.5857 76.6412 87.092 88.3291 73.7125 94.3567C61.5383 99.8414 48.7192 95.9428 36.5752 90.3708C22.8291 84.0636 7.45536 77.7237 2.55789 61.7086C-2.85249 44.0163 0.364582 22.7284 11.7858 9.30753C22.3516 -3.10813 39.1848 0.250825 54.3065 0.8997Z" fill="#D9EEFF"/>
<path d="M114.304 44.366C114.304 29.2522 100.289 17 83 17C65.7111 17 51.6957 29.2522 51.6957 44.366C47.2261 44.8525 43 47.4067 43 53.336V67.6271C43 74.3166 48.3565 76.7491 53.4348 76.7491H58.4783C59.4387 76.7491 60.2174 76.0684 60.2174 75.2288V45.7951C60.2174 44.9555 59.4387 44.2748 58.4783 44.2748H55.1739C55.1739 30.8404 67.6322 19.9494 83 19.9494C98.3678 19.9494 110.826 30.8404 110.826 44.2748H107.522C106.561 44.2748 105.783 44.9555 105.783 45.7951V75.1832C105.783 76.0228 106.561 76.7035 107.522 76.7035H110.826C110.339 87.1482 104.6 89.596 93.1391 90.0369V89.0182C93.1391 87.3388 91.582 85.9776 89.6609 85.9776H78.7217C76.8007 85.9776 75.2435 87.3388 75.2435 89.0182V93.9593C75.2435 95.6387 76.8007 97 78.7217 97H89.6957C91.6167 97 93.1739 95.6387 93.1739 93.9593V93.0775C104.2 92.6366 113.73 90.645 114.304 76.6123C118.774 76.1258 123 73.5716 123 67.6423V53.3512C123 47.3915 118.791 44.8525 114.304 44.366ZM56.7391 47.209V73.6629H53.3478C50.7739 73.6629 46.3913 72.8723 46.3913 67.5815V53.2904C46.3913 48.0452 50.7217 47.209 53.3478 47.209H56.7391ZM89.6957 91.6636V93.9745H78.7217V89.0334H89.6957V91.6636ZM119.522 67.6271C119.522 72.8723 115.191 73.7085 112.565 73.7085H109.261V47.3155H112.652C115.226 47.3155 119.609 48.106 119.609 53.3968L119.522 67.6271Z" fill="#FF6744"/>
</svg>
