<svg width="113" height="109" viewBox="0 0 113 109" fill="none" xmlns="http://www.w3.org/2000/svg">
<path fill-rule="evenodd" clip-rule="evenodd" d="M41.676 6.78777C55.0428 5.49932 66.876 13.2927 76.6323 22.6055C86.4361 31.9636 94.6699 43.4639 94.3301 57.0483C93.9652 71.6363 86.6746 85.2915 74.8536 93.7118C62.5654 102.465 46.4715 106.854 32.5339 101.067C19.4661 95.641 15.0814 80.5127 10.5758 67.0235C6.36489 54.4164 2.43505 40.9562 8.51989 29.171C14.978 16.6627 27.7306 8.13198 41.676 6.78777Z" fill="#D9EEFF"/>
<g clip-path="url(#clip0_449:575)">
<path d="M73.0001 22.9998C67.8454 22.9998 63.6667 27.1784 63.6667 32.3331C63.6726 37.4853 67.8479 41.6606 73.0001 41.6664C78.1547 41.6664 82.3334 37.4878 82.3334 32.3331C82.3334 27.1784 78.1547 22.9998 73.0001 22.9998ZM73.0001 38.9998C69.3182 38.9998 66.3334 36.0149 66.3334 32.3331C66.3377 28.6531 69.3201 25.6708 73.0001 25.6664C76.6819 25.6664 79.6667 28.6513 79.6667 32.3331C79.6667 36.0149 76.6819 38.9998 73.0001 38.9998Z" fill="#FF6744"/>
<path d="M77 42.9998H69C62.3757 43.0071 57.0073 48.3754 57 54.9998V77.6664H62.3333V103H65V72.3331H62.3333V74.9998H59.6667V54.9998C59.6725 49.8476 63.8478 45.6723 69 45.6664H77C82.1522 45.6723 86.3275 49.8476 86.3333 54.9998V74.9998H83.6667V72.3331H81V103H83.6667V77.6664H89V54.9998C88.9927 48.3754 83.6243 43.0071 77 42.9998Z" fill="#FF6744"/>
<path d="M74.3334 77.6665H71.6667V103H74.3334V77.6665Z" fill="#FF6744"/>
<path d="M99.6667 36.3333C95.2484 36.3333 91.6667 39.9149 91.6667 44.3333C91.6711 48.7498 95.2502 52.3289 99.6667 52.3333C104.085 52.3333 107.667 48.7516 107.667 44.3333C107.667 39.9149 104.085 36.3333 99.6667 36.3333ZM99.6667 49.6666C96.7212 49.6666 94.3334 47.2788 94.3334 44.3333C94.3334 41.3878 96.7212 38.9999 99.6667 38.9999C102.612 38.9999 105 41.3878 105 44.3333C105 47.2788 102.612 49.6666 99.6667 49.6666Z" fill="#FF6744"/>
<path d="M103.667 53.6665H91.6667V56.3332H103.667C107.347 56.3375 110.329 59.3198 110.333 62.9998V80.3332H107.667V77.6665H105V103H107.667V82.9998H113V62.9998C112.994 57.8477 108.819 53.6723 103.667 53.6665Z" fill="#FF6744"/>
<path d="M91.6666 77.6665V80.3332H86.3333V82.9998H91.6666V103H94.3332V77.6665H91.6666Z" fill="#FF6744"/>
<path d="M101 82.9998H98.3333V103H101V82.9998Z" fill="#FF6744"/>
<path d="M46.3333 36.3333C41.9149 36.3333 38.3333 39.9149 38.3333 44.3333C38.3376 48.7498 41.9168 52.3289 46.3333 52.3333C50.7516 52.3333 54.3333 48.7516 54.3333 44.3333C54.3333 39.9149 50.7516 36.3333 46.3333 36.3333ZM46.3333 49.6666C43.3878 49.6666 40.9999 47.2788 40.9999 44.3333C40.9999 41.3878 43.3878 38.9999 46.3333 38.9999C49.2788 38.9999 51.6666 41.3878 51.6666 44.3333C51.6666 47.2788 49.2788 49.6666 46.3333 49.6666Z" fill="#FF6744"/>
<path d="M42.3333 53.6665C37.1812 53.6723 33.0058 57.8477 33 62.9998V82.9998H38.3333V103H41V77.6665H38.3333V80.3332H35.6667V62.9998C35.671 59.3198 38.6533 56.3375 42.3333 56.3332H54.3333V53.6665H42.3333Z" fill="#FF6744"/>
<path d="M54.3334 80.3332V77.6665H51.6667V103H54.3334V82.9998H59.6667V80.3332H54.3334Z" fill="#FF6744"/>
<path d="M47.6667 82.9998H45V103H47.6667V82.9998Z" fill="#FF6744"/>
</g>
<defs>
<clipPath id="clip0_449:575">
<rect width="80" height="80" fill="white" transform="translate(33 22.9998)"/>
</clipPath>
</defs>
</svg>
