<svg width="615" height="704" viewBox="0 0 615 704" fill="none" xmlns="http://www.w3.org/2000/svg">
<path fill-rule="evenodd" clip-rule="evenodd" d="M435.772 67.404C445.869 66.1461 455.846 69.7113 465.8 71.8218C494.594 77.9277 524.519 71.8809 553.89 73.8208C568.425 74.7808 584.053 78.4152 593.248 89.713C599.647 97.5757 601.942 108.604 599.21 118.367C594.053 136.799 574.476 146.307 559.259 157.917C530.222 180.071 513.669 215.213 505.223 250.746C503.376 258.517 501.84 266.44 498.524 273.706C490.817 290.595 473.861 302.199 455.723 306.154C437.585 310.109 418.463 307.097 401.077 300.59C379.768 292.614 360.448 279.384 345.306 262.401C337.634 253.794 330.938 244.072 327.416 233.093C323.894 222.114 323.788 209.739 328.82 199.365C336.397 183.742 353.646 175.44 364.72 162.067C369.648 156.117 373.29 149.227 376.844 142.367C382.118 132.189 387.278 121.952 392.323 111.658C397.078 101.958 401.801 92.0989 408.703 83.7883C415.605 75.4776 425.052 68.7395 435.772 67.404Z" fill="#FE573F"/>
<path fill-rule="evenodd" clip-rule="evenodd" d="M165.897 644.233C155.786 643.101 146.915 637.306 137.729 632.931C111.155 620.274 80.6445 619.172 52.5372 610.432C38.6276 606.107 24.2791 598.926 17.9744 585.794C13.5867 576.656 13.9285 565.396 18.8626 556.54C28.178 539.821 49.4342 535.143 66.9393 527.405C100.344 512.637 124.641 482.328 141.145 449.746C144.754 442.622 148.097 435.275 153.017 428.984C164.452 414.36 183.648 407.033 202.208 407.419C220.768 407.805 238.659 415.196 254.047 425.581C272.906 438.309 288.606 455.682 299.367 475.729C304.82 485.888 309.061 496.905 309.924 508.403C310.787 519.901 308.002 531.958 300.689 540.872C289.676 554.295 270.966 558.343 257.077 568.763C250.896 573.399 245.747 579.249 240.69 585.09C233.188 593.757 225.781 602.508 218.473 611.339C211.586 619.662 204.693 628.147 196.042 634.618C187.391 641.088 176.633 645.436 165.897 644.233Z" fill="#5FAFEF"/>
</svg>
