<svg width="277" height="241" viewBox="0 0 277 241" fill="none" xmlns="http://www.w3.org/2000/svg">
<path fill-rule="evenodd" clip-rule="evenodd" d="M111.772 0.403965C121.869 -0.853899 131.846 2.71126 141.8 4.82185C170.594 10.9277 200.519 4.88093 229.89 6.8208C244.425 7.7808 260.053 11.4152 269.248 22.713C275.647 30.5757 277.942 41.6044 275.21 51.3671C270.053 69.7986 250.476 79.3071 235.259 90.9166C206.222 113.071 189.669 148.213 181.223 183.746C179.376 191.517 177.84 199.44 174.524 206.706C166.817 223.595 149.861 235.199 131.723 239.154C113.585 243.109 94.463 240.097 77.0771 233.59C55.7681 225.614 36.4477 212.384 21.3065 195.401C13.6335 186.794 6.93823 177.072 3.41615 166.093C-0.105912 155.114 -0.211527 142.739 4.82007 132.365C12.397 116.742 29.646 108.44 40.7203 95.0674C45.6481 89.1166 49.2903 82.2273 52.8444 75.3671C58.1176 65.1886 63.2777 54.9515 68.3234 44.6584C73.0784 34.9581 77.8012 25.0989 84.7032 16.7883C91.6053 8.47762 101.052 1.73953 111.772 0.403965Z" fill="#FE573F"/>
</svg>
