<svg width="80" height="84" viewBox="0 0 80 84" fill="none" xmlns="http://www.w3.org/2000/svg">
<circle cx="40" cy="42" r="40" fill="black"/>
<path d="M38.9844 28.2227C42.5234 28.3164 45.3828 29.7344 47.5625 32.4766L51.2891 13H61.2383L51.8867 67H43.0273L43.5898 62.9219C40.7539 66.2266 37.4492 67.832 33.6758 67.7383C31.3086 67.7148 29.2344 67.0938 27.4531 65.875C25.6719 64.6562 24.2891 62.9102 23.3047 60.6367C22.3438 58.3398 21.8164 55.7852 21.7227 52.9727C21.6523 51.4961 21.6875 50.0664 21.8281 48.6836L22.0391 47.1016C22.6016 43.2109 23.6797 39.7891 25.2734 36.8359C26.8906 33.8828 28.8594 31.6914 31.1797 30.2617C33.5234 28.832 36.125 28.1523 38.9844 28.2227ZM31.7773 48.6836C31.5898 50.4648 31.5312 51.9648 31.6016 53.1836C31.8359 57.3086 33.5 59.4062 36.5938 59.4766C39.3828 59.5938 41.8086 58.2812 43.8711 55.5391L46.5781 40.4219C45.6641 37.9141 43.8359 36.6016 41.0938 36.4844C38.6797 36.4141 36.6641 37.3516 35.0469 39.2969C33.4531 41.2188 32.3633 44.3477 31.7773 48.6836Z" fill="white"/>
</svg>
